<?xml version="1.0" standalone="no"?>
<!DOCTYPE svg PUBLIC "-//W3C//DTD SVG 20010904//EN"
 "http://www.w3.org/TR/2001/REC-SVG-20010904/DTD/svg10.dtd">
<svg version="1.0" xmlns="http://www.w3.org/2000/svg"
 width="730.000000pt" height="1298.000000pt" viewBox="0 0 730.000000 1298.000000"
 preserveAspectRatio="xMidYMid meet">

<g transform="translate(0.000000,1298.000000) scale(0.100000,-0.100000)"
fill="#000000" stroke="none">
<path d="M0 11819 l0 -1160 33 25 c19 15 40 26 48 26 8 0 26 6 41 14 15 8 42
17 60 21 18 4 46 13 63 20 16 7 84 30 150 51 66 21 126 42 132 47 7 5 20 6 29
3 19 -7 162 136 260 259 35 44 68 85 74 92 45 53 204 287 282 415 29 48 80
131 114 185 175 282 204 333 204 357 0 43 22 84 115 216 187 266 377 495 469
568 l29 22 -1052 0 -1051 0 0 -1161z"/>
<path d="M6091 12894 c25 -27 70 -74 100 -105 188 -192 230 -245 248 -311 8
-26 43 -83 90 -143 170 -220 351 -497 478 -735 182 -339 281 -687 243 -855 -6
-27 -11 -106 -10 -175 0 -69 -4 -132 -9 -140 -13 -18 -17 -6 -26 65 -12 106
-9 93 -34 165 -7 19 -17 51 -23 70 -5 19 -15 40 -20 45 -10 10 -10 0 8 -85 7
-32 -11 -44 -19 -12 -3 10 -5 8 -5 -8 0 -34 15 -92 17 -65 2 19 2 19 12 2 6
-9 17 -42 25 -73 16 -63 20 -274 4 -274 -5 0 -10 18 -10 40 0 23 -5 40 -11 40
-8 0 -9 -24 -4 -80 6 -62 4 -80 -6 -80 -8 0 -5 -6 7 -15 19 -15 19 -15 -3 -34
-18 -15 -23 -30 -23 -65 0 -34 -4 -46 -15 -46 -11 0 -15 -11 -15 -40 0 -33 -3
-40 -20 -40 -17 0 -20 7 -20 40 0 33 -3 40 -20 40 -17 0 -20 -7 -20 -40 0 -22
-4 -40 -10 -40 -6 0 -10 -33 -10 -80 0 -64 -3 -80 -15 -80 -12 0 -15 -21 -16
-122 l-2 -123 -12 85 c-9 63 -13 74 -14 43 0 -24 -5 -43 -11 -43 -5 0 -10 -18
-10 -40 0 -22 5 -40 10 -40 6 0 10 -33 10 -80 0 -49 -4 -80 -10 -80 -6 0 -10
-18 -9 -42 2 -48 -8 -88 -22 -88 -5 0 -9 -8 -9 -17 0 -15 -2 -16 -10 -3 -8 13
-9 13 -13 0 -18 -63 -24 -75 -40 -74 -9 1 -17 -2 -17 -7 0 -5 -7 -9 -15 -9
-11 0 -15 -11 -15 -40 0 -22 -4 -40 -9 -40 -5 0 -12 -11 -15 -25 -4 -14 -11
-25 -16 -25 -6 0 -10 -7 -10 -15 0 -8 -4 -15 -9 -15 -12 0 -71 -59 -71 -71 0
-5 5 -9 10 -9 17 0 11 -20 -7 -27 -24 -9 -34 -25 -28 -44 10 -29 -58 -155 -68
-127 -2 7 -8 2 -12 -14 -4 -16 -11 -28 -15 -28 -4 0 -11 -11 -14 -25 -4 -14
-11 -25 -16 -25 -6 0 -10 -9 -10 -21 0 -11 -13 -32 -30 -46 -16 -13 -30 -33
-30 -43 0 -10 -4 -22 -10 -25 -5 -3 -10 -16 -10 -27 0 -12 -18 -39 -40 -60
-22 -22 -40 -47 -40 -55 0 -9 -10 -26 -22 -38 -34 -32 -58 -64 -58 -75 0 -6
-4 -10 -9 -10 -11 0 -71 -86 -71 -101 0 -5 -6 -9 -13 -9 -6 0 -18 -14 -26 -32
-8 -17 -34 -50 -58 -72 -23 -22 -43 -48 -43 -58 0 -11 -7 -18 -18 -18 -19 0
-82 -61 -82 -80 0 -6 -18 -17 -40 -26 -24 -10 -40 -23 -40 -33 0 -10 -20 -26
-52 -42 -29 -14 -52 -31 -50 -38 1 -6 -10 -17 -25 -24 -29 -12 -60 -46 -55
-60 1 -4 -10 -13 -24 -19 -27 -12 -116 -97 -141 -134 -7 -12 -27 -24 -43 -27
-18 -4 -31 -14 -35 -29 -4 -13 -18 -37 -31 -55 -13 -17 -24 -36 -24 -41 0 -6
-7 -12 -15 -16 -8 -3 -15 -12 -15 -20 0 -8 -12 -24 -26 -35 -16 -12 -23 -25
-18 -33 5 -10 4 -11 -7 0 -7 6 -20 12 -28 11 -11 0 -12 -2 -3 -6 20 -8 13 -26
-8 -20 -17 4 -20 2 -15 -14 4 -10 2 -19 -3 -19 -6 0 -21 -9 -34 -20 -12 -11
-34 -29 -48 -39 -14 -11 -20 -20 -14 -21 23 0 241 154 295 208 30 31 83 80
117 107 34 28 62 53 62 58 0 4 6 7 14 7 8 0 16 3 18 8 2 4 28 27 58 52 88 72
91 74 113 94 12 10 42 32 67 49 25 17 48 35 52 41 5 7 8 6 8 -2 0 -8 -23 -35
-52 -60 -29 -26 -69 -63 -89 -82 -21 -19 -44 -39 -51 -45 -7 -5 -29 -23 -49
-40 -60 -51 -93 -76 -121 -93 -16 -9 -28 -20 -28 -25 0 -4 6 -5 13 0 36 22
143 99 152 109 23 26 82 63 90 56 5 -4 5 -2 2 4 -3 6 11 21 32 35 22 13 37 27
34 32 -2 4 3 7 11 7 9 0 16 4 16 9 0 13 28 22 35 11 3 -5 -9 -22 -26 -37 -18
-15 -62 -56 -98 -90 -90 -83 -273 -216 -404 -292 -59 -35 -106 -66 -103 -68 3
-3 22 5 43 18 21 13 50 31 65 39 14 8 41 23 59 34 48 27 287 200 334 241 179
157 243 220 232 231 -3 3 -23 -14 -45 -38 -34 -35 -43 -41 -54 -30 -11 11 -10
15 5 24 10 5 48 37 83 70 88 83 106 98 116 98 18 0 -56 -91 -79 -96 -23 -6
-33 -24 -13 -24 6 0 10 -7 10 -16 0 -10 6 -14 15 -10 8 3 15 1 15 -4 0 -6 5
-10 11 -10 5 0 36 -12 67 -26 31 -14 73 -33 92 -41 19 -8 52 -24 73 -34 21
-10 45 -19 55 -19 9 0 23 -9 30 -20 7 -11 20 -20 30 -20 9 0 43 -16 75 -35 32
-19 62 -35 68 -35 5 0 9 -4 9 -10 0 -5 6 -10 13 -10 8 0 33 -13 55 -30 23 -17
46 -30 52 -30 5 0 10 -4 10 -10 0 -5 12 -10 26 -10 14 0 23 -4 19 -10 -3 -5
-1 -10 5 -10 6 0 23 -11 38 -25 15 -14 37 -28 50 -31 12 -4 22 -10 22 -16 0
-5 10 -6 23 -3 14 4 17 3 9 -3 -9 -6 -2 -17 27 -40 22 -18 47 -32 55 -32 9 0
16 -4 16 -10 0 -5 6 -10 13 -10 30 0 124 -182 134 -260 3 -19 12 -41 21 -47
11 -9 12 -13 3 -13 -9 0 -11 -6 -6 -17 4 -10 9 -38 11 -62 3 -24 8 -49 12 -55
3 -6 7 -186 8 -399 1 -277 4 -391 13 -400 12 -12 12 -11 16 46 1 15 7 33 12
38 8 8 12 -7 13 -48 5 -135 0 -264 -11 -258 -10 7 -17 -22 -22 -95 -5 -71 -28
-183 -39 -191 -11 -7 -39 -99 -31 -99 3 0 0 -7 -7 -15 -6 -8 -9 -19 -5 -25 3
-5 -1 -10 -10 -10 -9 0 -14 -4 -11 -8 6 -10 -40 -108 -54 -117 -7 -4 -8 14 -4
52 4 32 11 60 16 61 4 2 8 21 8 43 0 21 4 39 9 39 4 0 11 15 15 33 3 17 10 54
16 80 8 39 7 52 -4 63 -13 12 -14 6 -9 -44 3 -43 2 -53 -7 -42 -8 12 -9 10 -5
-11 4 -16 1 -30 -9 -38 -8 -7 -18 -27 -21 -44 -8 -42 -46 -149 -57 -161 -4 -6
-8 -19 -8 -30 0 -12 -12 -43 -25 -71 -14 -27 -25 -54 -25 -60 -1 -21 -120
-245 -146 -276 -8 -8 -14 -20 -14 -26 0 -14 -162 -163 -177 -163 -21 0 -93
-37 -93 -47 0 -7 -12 -15 -27 -18 -16 -3 -55 -11 -88 -19 -44 -10 -75 -11
-115 -5 -56 9 -191 -7 -285 -34 -22 -7 -44 -10 -50 -8 -5 2 -21 3 -34 2 -16
-1 -22 3 -18 13 5 12 -4 13 -46 9 -33 -3 -90 3 -155 16 -57 12 -107 19 -113
15 -5 -3 -15 -1 -22 4 -13 10 -136 28 -126 18 7 -7 71 -21 223 -46 65 -11 122
-23 126 -25 4 -3 45 -11 91 -19 46 -8 167 -30 269 -50 102 -20 196 -36 209
-36 13 0 46 16 72 35 27 19 53 35 58 35 5 0 14 7 21 16 22 25 92 56 104 44 5
-5 18 -10 27 -10 9 0 43 -28 76 -62 106 -114 155 -158 173 -158 5 0 10 -4 10
-9 0 -5 13 -12 30 -16 16 -4 33 -11 36 -17 4 -6 -2 -8 -16 -3 -15 5 -20 4 -16
-4 4 -6 18 -11 30 -11 13 0 30 -7 37 -16 12 -14 29 -16 121 -11 105 5 108 5
108 -15 0 -47 -125 -247 -242 -389 -21 -25 -38 -51 -38 -58 0 -7 -4 -9 -10 -6
-5 3 -10 2 -10 -3 0 -12 -39 -52 -50 -52 -16 0 -12 28 10 70 24 47 25 102 5
222 -17 106 -43 159 -98 199 -97 72 -108 75 -587 159 -129 23 -476 86 -770
141 -294 54 -607 112 -695 128 -230 42 -986 179 -1195 216 -74 13 -286 51
-470 84 -184 33 -492 87 -685 121 -192 33 -435 76 -540 94 -104 19 -260 47
-345 61 -85 15 -227 40 -315 56 -178 32 -236 35 -310 15 -62 -16 -90 -30 -132
-67 -18 -16 -39 -26 -46 -23 -9 3 -18 40 -26 107 -7 56 -14 111 -16 122 -2 12
-43 52 -91 90 -48 39 -119 106 -157 150 -39 43 -81 91 -93 105 -37 41 -113
161 -144 227 -41 86 -68 187 -85 323 -9 63 -22 135 -29 160 -17 53 -64 262
-69 305 -2 17 -5 -1470 -6 -3302 l-1 -3333 85 0 c72 0 85 3 85 16 0 14 33 161
46 206 3 10 11 17 17 15 8 -1 11 11 9 38 -3 38 23 152 66 295 11 36 35 119 55
185 19 66 42 134 51 150 9 17 16 38 16 47 0 10 6 32 14 50 8 18 20 53 27 78 7
25 21 56 31 69 10 13 17 36 16 50 -2 26 18 96 32 116 4 6 13 33 20 60 7 28 22
66 32 85 10 19 18 43 18 52 0 10 4 26 9 36 17 33 30 67 46 122 18 60 37 110
68 180 11 25 28 69 38 98 10 29 32 79 48 110 50 96 131 269 131 281 0 17 16
13 47 -13 16 -13 48 -29 71 -35 37 -10 59 -31 32 -31 -5 0 -10 -7 -10 -15 0
-9 -20 -55 -44 -103 -24 -48 -49 -105 -56 -127 -7 -22 -23 -58 -36 -81 -13
-22 -24 -48 -24 -57 0 -9 -14 -46 -30 -80 -17 -35 -30 -71 -30 -80 0 -10 -4
-17 -10 -17 -5 0 -10 -12 -10 -27 0 -16 -14 -61 -30 -102 -17 -40 -30 -80 -30
-87 0 -17 -29 -64 -48 -79 -7 -6 -26 -48 -42 -94 -17 -47 -38 -94 -48 -105
-23 -26 -35 -59 -62 -166 -11 -47 -27 -105 -35 -130 -8 -25 -17 -67 -21 -95
-4 -27 -13 -62 -20 -77 -8 -15 -14 -48 -14 -73 0 -25 -7 -62 -15 -81 -8 -20
-17 -66 -21 -102 -6 -69 -40 -200 -55 -216 -5 -6 -9 -35 -9 -65 -1 -31 -7 -74
-15 -96 -8 -22 -15 -55 -15 -72 l0 -33 3460 0 3460 0 0 2504 c0 1994 -3 2506
-12 2510 -10 5 -10 7 0 12 8 4 12 38 12 119 0 81 -4 115 -12 118 -10 4 -10 6
0 6 17 1 18 5671 1 5703 -8 15 -8 19 0 14 8 -5 11 238 11 882 l0 890 -132 11
c-73 7 -169 18 -213 26 -44 8 -114 16 -155 19 -160 12 -567 68 -617 85 -148
50 -143 50 -92 -5z m1106 -2696 c-2 -13 -4 -3 -4 22 0 25 2 35 4 23 2 -13 2
-33 0 -45z m-377 -1067 c0 -6 -4 -13 -10 -16 -5 -3 -10 1 -10 9 0 9 5 16 10
16 6 0 10 -4 10 -9z m-91 -172 c-19 -12 -24 -2 -8 17 9 11 14 13 17 4 3 -7 -2
-16 -9 -21z m-711 -1199 c-7 -11 -19 -20 -27 -20 -11 0 -10 5 5 19 25 26 37
26 22 1z m-48 -30 c0 -5 -5 -10 -11 -10 -5 0 -7 5 -4 10 3 6 8 10 11 10 2 0 4
-4 4 -10z m1256 -975 c7 -28 0 -55 -15 -55 -6 0 -10 18 -8 40 2 45 14 52 23
15z m-171 -1696 c-7 -20 -8 -21 -17 -4 -8 12 -7 20 3 26 18 11 22 5 14 -22z
m-6138 -31 c-2 -7 -21 -13 -43 -14 -21 0 -48 -4 -59 -8 -11 -4 -31 -12 -44
-17 -13 -5 -26 -8 -28 -5 -2 2 12 10 31 17 20 7 36 16 36 20 0 7 21 11 93 17
11 1 17 -3 14 -10z m6085 -349 c73 -28 118 -64 118 -94 0 -18 -17 -36 -72 -75
-67 -47 -77 -51 -118 -46 -25 2 -58 9 -73 15 -27 11 -27 11 -12 41 11 21 23
30 40 30 13 0 35 4 49 9 17 7 26 7 30 -2 3 -8 5 -8 5 -1 1 6 -12 28 -29 49
-35 44 -33 37 -20 69 12 31 15 32 82 5z m-5758 -28 c4 -5 1 -11 -6 -13 -7 -3
-8 -9 -3 -18 6 -10 11 -8 18 11 5 14 11 19 14 11 3 -6 9 -10 14 -6 5 3 9 -9 9
-27 0 -30 -1 -31 -31 -25 -17 3 -38 6 -45 6 -9 0 -14 12 -14 35 0 28 4 35 19
35 11 0 22 -4 25 -9z m164 -65 c4 -17 -22 -22 -52 -10 -12 5 -13 11 -6 25 8
14 16 16 33 10 12 -5 23 -16 25 -25z m135 -10 c7 -18 -1 -26 -29 -26 -21 0
-39 22 -27 34 12 12 51 6 56 -8z m4857 -191 c-15 -17 -119 -70 -126 -63 -11
11 84 65 135 77 2 1 -2 -6 -9 -14z m-464 -632 c-10 -10 -19 5 -10 18 6 11 8
11 12 0 2 -7 1 -15 -2 -18z m138 4 c18 -13 18 -14 1 -21 -10 -4 -21 -2 -25 4
-4 6 -13 10 -20 8 -7 -2 -15 3 -17 10 -6 16 38 16 61 -1z m-4808 -145 c31 -22
32 -72 3 -90 -48 -31 -135 39 -109 87 18 35 60 36 106 3z m4914 -63 c63 -13
118 -27 122 -32 7 -12 -32 -97 -45 -97 -5 0 -7 11 -5 24 5 25 -13 44 -75 79
-39 21 -62 21 -107 -1 -31 -16 -35 -22 -34 -55 1 -20 0 -37 -2 -37 -2 0 -11
12 -19 28 -9 15 -14 19 -11 10 3 -10 0 -18 -7 -18 -8 0 -7 -4 3 -10 8 -5 11
-12 8 -15 -17 -18 -30 10 -23 52 15 101 18 107 54 99 14 -3 78 -15 141 -27z
m-170 -321 c0 -10 -27 -9 -60 2 -20 6 -17 8 17 6 24 0 43 -4 43 -8z m675 -318
c-27 -253 -53 -326 -152 -431 -25 -27 -57 -64 -70 -84 -13 -19 -32 -35 -43
-35 -10 0 -20 -5 -22 -11 -6 -19 -38 20 -38 46 0 13 23 73 51 132 28 59 71
155 95 212 25 56 75 164 111 239 60 124 67 135 75 112 7 -17 4 -76 -7 -180z
m-730 50 c3 -5 1 -10 -4 -10 -6 0 -11 5 -11 10 0 6 2 10 4 10 3 0 8 -4 11 -10z
m73 -23 c5 -24 -15 -21 -21 4 -3 13 -1 19 6 16 7 -2 13 -11 15 -20z m-96 -9
c-6 -6 -16 -7 -22 -3 -9 6 -9 9 1 16 17 10 34 0 21 -13z m-67 -8 c3 -5 -1 -10
-9 -10 -9 0 -16 5 -16 10 0 6 4 10 9 10 6 0 13 -4 16 -10z m-4110 -122 c30
-14 33 -28 4 -28 -28 0 -61 19 -54 31 8 12 19 11 50 -3z m4124 -38 c73 -21
105 -84 57 -115 -46 -30 -87 -36 -143 -20 -85 25 -98 82 -28 122 45 25 64 28
114 13z m-59 -320 c0 -5 -5 -10 -11 -10 -5 0 -7 5 -4 10 3 6 8 10 11 10 2 0 4
-4 4 -10z m30 -15 c0 -14 -38 -41 -46 -33 -5 6 29 48 39 48 4 0 7 -7 7 -15z
m-166 -146 c29 -8 36 -13 25 -20 -23 -15 -55 -10 -74 11 -21 24 -11 26 49 9z
m-3969 -64 c154 -30 352 -69 440 -86 88 -16 201 -39 250 -49 196 -42 681 -140
870 -175 110 -21 403 -78 650 -127 248 -49 473 -93 500 -98 241 -42 373 -67
490 -91 55 -11 123 -24 150 -29 228 -39 310 -65 319 -100 20 -71 27 -198 16
-273 -29 -203 -92 -330 -233 -471 -189 -189 -390 -233 -672 -149 -50 14 -63
19 -120 43 -79 33 -156 64 -220 87 -38 14 -93 40 -122 59 -79 52 -331 132
-688 219 -320 78 -434 97 -825 136 -63 6 -121 14 -129 19 -7 4 -36 -1 -64 -12
-47 -18 -63 -19 -196 -9 -80 5 -152 6 -161 2 -21 -11 -193 5 -262 23 -183 49
-340 171 -418 326 -59 117 -75 191 -75 350 0 163 10 210 75 347 42 88 68 113
115 113 16 0 156 -25 310 -55z m3885 16 c0 -5 13 -14 30 -21 29 -12 58 -10
109 6 21 6 23 5 16 -17 -11 -36 -15 -38 -90 -27 -93 12 -117 24 -102 49 12 19
37 26 37 10z m-40 -201 c0 -5 -4 -10 -10 -10 -5 0 -10 5 -10 10 0 6 5 10 10
10 6 0 10 -4 10 -10z m70 -10 c0 -5 -5 -10 -11 -10 -5 0 -7 5 -4 10 3 6 8 10
11 10 2 0 4 -4 4 -10z"/>
<path d="M5780 2730 c0 -5 5 -10 10 -10 6 0 10 5 10 10 0 6 -4 10 -10 10 -5 0
-10 -4 -10 -10z"/>
<path d="M5765 2690 c3 -5 10 -10 16 -10 5 0 9 5 9 10 0 6 -7 10 -16 10 -8 0
-12 -4 -9 -10z"/>
<path d="M5820 2680 c0 -5 5 -10 10 -10 6 0 10 5 10 10 0 6 -4 10 -10 10 -5 0
-10 -4 -10 -10z"/>
<path d="M5870 2670 c0 -5 7 -10 15 -10 8 0 15 5 15 10 0 6 -7 10 -15 10 -8 0
-15 -4 -15 -10z"/>
<path d="M6235 11950 c-3 -5 -1 -10 4 -10 6 0 11 5 11 10 0 6 -2 10 -4 10 -3
0 -8 -4 -11 -10z"/>
<path d="M4406 11875 c-71 -37 -104 -139 -71 -218 43 -104 178 -104 221 0 9
22 21 33 34 33 15 0 20 7 20 29 0 35 -9 63 -19 57 -4 -3 -8 4 -8 15 -2 25 -41
74 -71 88 -32 15 -72 14 -106 -4z"/>
<path d="M6164 11856 c-9 -15 -14 -29 -10 -33 3 -3 6 -1 6 5 0 6 7 18 16 27 9
9 14 18 11 21 -3 3 -13 -6 -23 -20z"/>
<path d="M6117 11792 c-19 -20 -23 -37 -7 -27 10 6 33 45 27 45 -2 0 -11 -8
-20 -18z"/>
<path d="M6076 11745 c-9 -26 -7 -32 5 -12 6 10 9 21 6 23 -2 3 -7 -2 -11 -11z"/>
<path d="M7130 11269 c0 -4 7 -22 15 -40 8 -19 14 -27 14 -19 0 14 -28 72 -29
59z"/>
<path d="M7167 11155 c3 -22 7 -42 9 -44 8 -9 2 45 -6 64 -7 14 -8 8 -3 -20z"/>
<path d="M7181 11074 c0 -11 3 -14 6 -6 3 7 2 16 -1 19 -3 4 -6 -2 -5 -13z"/>
<path d="M7192 11030 c0 -14 2 -19 5 -12 2 6 2 18 0 25 -3 6 -5 1 -5 -13z"/>
<path d="M452 10648 c-1 -31 -6 -60 -12 -63 -5 -3 -9 -18 -9 -33 l2 -27 4 25
c3 14 9 28 15 31 5 3 7 32 5 65 l-3 59 -2 -57z"/>
<path d="M7072 10665 c0 -16 2 -22 5 -12 2 9 2 23 0 30 -3 6 -5 -1 -5 -18z"/>
<path d="M5827 10590 c-217 -69 -382 -327 -404 -631 -11 -158 35 -350 111
-464 120 -181 304 -254 493 -197 208 64 389 286 433 532 61 337 -104 678 -369
760 -80 25 -186 25 -264 0z"/>
<path d="M7091 10594 c0 -11 3 -14 6 -6 3 7 2 16 -1 19 -3 4 -6 -2 -5 -13z"/>
<path d="M451 10533 c0 -23 -5 -45 -11 -48 -5 -3 -10 -16 -11 -28 -1 -20 -2
-20 -9 3 l-8 25 -1 -24 c-1 -13 -3 -22 -7 -19 -3 3 -43 -14 -90 -38 -46 -24
-91 -44 -100 -44 -8 0 -40 -11 -70 -25 -30 -14 -63 -25 -74 -25 -10 0 -31 -5
-45 -12 l-25 -11 1 -1681 c1 -1320 4 -1663 13 -1596 9 68 19 98 49 149 86 146
197 261 322 334 39 22 77 46 85 53 9 7 37 18 63 23 26 6 73 25 106 42 50 26
72 32 157 36 57 3 128 0 169 -6 39 -7 81 -13 95 -14 19 -2 24 -7 23 -24 -2
-21 21 -38 39 -27 5 3 12 -4 15 -16 4 -16 11 -20 27 -16 11 3 24 6 29 6 4 0 7
8 7 18 0 9 8 22 18 29 11 6 35 35 55 65 41 62 79 99 162 158 33 24 87 69 120
100 83 79 137 112 185 115 22 1 37 -1 35 -5 -3 -4 7 -7 21 -7 23 0 17 7 -47
66 -163 148 -304 252 -437 321 -130 67 -229 180 -340 390 -135 253 -360 951
-461 1430 -17 81 -27 138 -54 320 -3 14 -5 7 -6 -17z"/>
<path d="M7111 10514 c0 -11 3 -14 6 -6 3 7 2 16 -1 19 -3 4 -6 -2 -5 -13z"/>
<path d="M0 10440 c0 -67 10 -74 38 -27 15 25 15 29 0 54 -28 47 -38 40 -38
-27z"/>
<path d="M7140 10460 c0 -22 5 -40 10 -40 6 0 10 18 10 40 0 22 -4 40 -10 40
-5 0 -10 -18 -10 -40z"/>
<path d="M2516 10455 c-11 -8 -17 -17 -14 -20 2 -3 13 4 23 15 21 23 18 25 -9
5z"/>
<path d="M7076 10418 c-11 -66 -10 -135 1 -124 8 7 15 156 8 156 -2 0 -6 -15
-9 -32z"/>
<path d="M2454 10398 l-29 -33 33 29 c30 28 37 36 29 36 -2 0 -16 -15 -33 -32z"/>
<path d="M7102 10360 c0 -14 2 -19 5 -12 2 6 2 18 0 25 -3 6 -5 1 -5 -13z"/>
<path d="M2738 10337 c-218 -75 -363 -296 -381 -582 -3 -49 -3 -81 0 -70 16
61 29 30 38 -89 6 -78 0 -81 -20 -9 -7 26 -14 39 -14 28 -2 -35 47 -203 75
-257 141 -278 405 -426 649 -362 397 103 558 656 311 1063 -76 124 -204 231
-332 276 -95 34 -230 34 -326 2z m-278 -806 c0 -5 -7 -14 -15 -21 -17 -14 -21
-35 -5 -25 12 7 12 -2 0 -30 -7 -18 -8 -19 -15 -3 -4 10 -10 16 -14 14 -4 -3
-5 11 -3 30 2 18 8 31 13 28 5 -3 9 0 9 5 0 6 7 11 15 11 8 0 15 -4 15 -9z
m51 -73 c-1 -5 -1 -19 -1 -33 0 -16 -6 -25 -15 -25 -8 0 -15 -8 -15 -17 -1
-16 -2 -16 -15 1 -20 27 -19 63 3 75 19 12 43 11 43 -1z m47 -70 c3 -27 -33
-72 -50 -62 -13 8 -9 24 7 24 11 0 15 11 15 36 0 42 23 43 28 2z"/>
<path d="M7040 10270 c0 -5 7 -10 15 -10 8 0 15 5 15 10 0 6 -7 10 -15 10 -8
0 -15 -4 -15 -10z"/>
<path d="M7026 10201 c-4 -7 -5 -15 -2 -18 9 -9 19 4 14 18 -4 11 -6 11 -12 0z"/>
<path d="M6951 9974 c0 -11 3 -14 6 -6 3 7 2 16 -1 19 -3 4 -6 -2 -5 -13z"/>
<path d="M6701 9397 c-1 -10 -5 -15 -11 -12 -6 4 -7 -1 -3 -11 6 -15 7 -15 15
0 5 9 7 22 4 29 -2 7 -5 4 -5 -6z"/>
<path d="M6702 9330 c0 -14 2 -19 5 -12 2 6 2 18 0 25 -3 6 -5 1 -5 -13z"/>
<path d="M1968 7728 c-114 -312 -198 -621 -285 -1051 -33 -164 -34 -180 -20
-195 13 -13 21 -13 42 -4 14 7 27 17 29 24 3 7 25 114 51 238 44 209 62 286
130 544 36 137 142 456 162 485 15 23 14 25 -18 52 -19 16 -37 29 -40 29 -4 0
-27 -55 -51 -122z"/>
<path d="M790 7620 c-69 -5 -63 -6 70 -13 80 -5 149 -13 154 -18 13 -12 26
-12 26 1 0 6 -6 10 -14 10 -8 0 -16 4 -18 9 -4 11 -122 17 -218 11z"/>
<path d="M4975 7499 c-118 -33 -310 -58 -525 -69 -113 -6 -209 -15 -213 -20
-15 -14 1 -44 37 -68 75 -51 240 -79 369 -62 88 12 146 27 162 42 6 6 5 7 -5
4 -8 -2 -40 -7 -70 -10 l-55 -5 75 22 c101 31 228 99 275 147 44 45 45 45 -50
19z"/>
<path d="M5774 7404 c-65 -64 -162 -151 -214 -193 -52 -42 -101 -82 -108 -88
-7 -7 -16 -13 -20 -13 -4 0 -22 -14 -41 -30 -18 -17 -37 -30 -40 -30 -4 0 -18
-10 -31 -22 -61 -60 -407 -258 -449 -258 -21 0 7 -291 30 -305 5 -4 9 1 9 10
0 9 6 23 13 30 28 32 34 42 41 68 3 15 11 25 16 22 6 -4 7 -13 1 -23 -4 -9
-11 -37 -15 -62 -7 -47 -106 -259 -130 -279 -12 -10 -12 -6 -1 27 22 63 31
235 20 367 -10 119 -11 120 -35 117 -33 -3 -159 -51 -185 -69 l-20 -15 20 6
c11 3 25 2 32 -2 12 -7 53 -121 53 -147 0 -8 5 -15 10 -15 6 0 10 -17 10 -37
0 -41 18 -77 27 -55 2 6 10 12 17 12 10 0 27 59 39 140 3 14 5 -25 6 -87 0
-62 -5 -146 -14 -190 -14 -76 -16 -80 -77 -138 -85 -82 -185 -148 -339 -226
-34 -17 -135 -43 -204 -53 -16 -2 7 -2 51 0 223 11 460 135 590 310 28 39 102
115 140 144 67 53 221 191 288 260 44 44 83 80 88 80 10 0 88 79 88 90 0 4 18
15 39 26 22 10 42 26 44 35 2 9 25 22 52 30 26 8 55 24 65 37 20 25 36 28 42
10 6 -18 78 38 79 60 0 10 3 12 6 5 9 -23 23 -13 23 15 0 28 26 62 47 62 6 0
13 46 17 110 4 60 13 131 21 157 7 27 13 66 13 88 0 22 2 61 5 88 3 26 4 47 2
47 -1 0 -56 -52 -121 -116z"/>
<path d="M6518 7349 c-2 -6 0 -41 4 -78 4 -36 7 -165 7 -286 1 -339 -19 -583
-95 -1182 -17 -128 -17 -134 1 -153 10 -11 28 -20 41 -20 30 0 35 18 73 295
63 458 84 716 85 1050 1 301 -4 339 -53 368 -33 20 -58 22 -63 6z"/>
<path d="M2629 7318 c-1 -7 0 -19 1 -27 1 -8 -3 -24 -8 -35 -16 -35 -33 -142
-36 -229 -2 -45 -1 -56 1 -24 2 31 8 57 13 57 6 0 10 15 10 33 1 17 9 76 19
130 10 54 14 100 9 103 -4 3 -9 -1 -9 -8z"/>
<path d="M5449 7293 c-13 -15 -12 -15 9 -4 23 12 28 21 13 21 -5 0 -15 -7 -22
-17z"/>
<path d="M5831 6964 c0 -11 3 -14 6 -6 3 7 2 16 -1 19 -3 4 -6 -2 -5 -13z"/>
<path d="M2567 6893 c-14 -90 -29 -541 -22 -698 7 -171 35 -463 56 -565 35
-179 94 -402 130 -495 4 -11 21 -60 38 -110 19 -57 37 -92 48 -97 10 -4 110
-23 223 -43 314 -55 891 -159 1491 -270 288 -53 314 -54 323 -22 3 12 6 25 6
28 0 3 -37 9 -82 13 -46 4 -105 13 -133 21 -74 21 -171 43 -249 55 -38 6 -73
13 -78 16 -8 5 -168 38 -368 75 -30 6 -77 15 -105 20 -27 5 -90 16 -140 24
-179 28 -222 35 -310 54 -153 33 -308 61 -361 66 -29 2 -81 11 -118 19 -36 9
-72 13 -79 10 -50 -19 -179 415 -226 761 -44 323 -63 793 -41 1038 11 125 9
178 -3 100z"/>
<path d="M3309 6700 c-14 -119 33 -320 102 -437 65 -108 187 -223 309 -291 75
-41 119 -51 50 -11 -85 49 -278 248 -334 344 -56 96 -103 240 -114 350 -6 58
-10 70 -13 45z"/>
<path d="M3682 6550 c0 -19 2 -27 5 -17 2 9 2 25 0 35 -3 9 -5 1 -5 -18z"/>
<path d="M3693 6415 c0 -27 2 -38 4 -22 2 15 2 37 0 50 -2 12 -4 0 -4 -28z"/>
<path d="M4811 6414 c0 -11 3 -14 6 -6 3 7 2 16 -1 19 -3 4 -6 -2 -5 -13z"/>
<path d="M874 6339 c-3 -5 -2 -9 3 -9 4 0 19 -3 32 -7 16 -4 22 -2 18 4 -9 15
-46 23 -53 12z"/>
<path d="M3704 6200 c0 -69 1 -97 3 -62 2 34 2 90 0 125 -2 34 -3 6 -3 -63z"/>
<path d="M7182 5842 c-14 -64 -14 -62 -2 -62 6 0 10 18 10 40 0 33 3 38 18 34
10 -4 13 -3 6 3 -6 4 -13 15 -16 23 -3 8 -10 -9 -16 -38z"/>
<path d="M7161 5714 c0 -11 3 -14 6 -6 3 7 2 16 -1 19 -3 4 -6 -2 -5 -13z"/>
<path d="M7141 5524 c0 -11 3 -14 6 -6 3 7 2 16 -1 19 -3 4 -6 -2 -5 -13z"/>
<path d="M2123 5053 c9 -2 23 -2 30 0 6 3 -1 5 -18 5 -16 0 -22 -2 -12 -5z"/>
<path d="M2300 5025 c63 -13 122 -24 130 -23 28 1 -134 36 -190 42 -33 3 -9
-5 60 -19z"/>
<path d="M5098 4523 c7 -3 16 -2 19 1 4 3 -2 6 -13 5 -11 0 -14 -3 -6 -6z"/>
<path d="M5168 4503 c6 -2 18 -2 25 0 6 3 1 5 -13 5 -14 0 -19 -2 -12 -5z"/>
<path d="M5218 4493 c6 -2 18 -2 25 0 6 3 1 5 -13 5 -14 0 -19 -2 -12 -5z"/>
<path d="M5325 4475 c70 -17 108 -19 85 -6 -8 5 -44 11 -80 14 l-65 6 60 -14z"/>
<path d="M5968 4393 c6 -2 18 -2 25 0 6 3 1 5 -13 5 -14 0 -19 -2 -12 -5z"/>
<path d="M1060 2260 c0 -5 5 -10 11 -10 5 0 7 5 4 10 -3 6 -8 10 -11 10 -2 0
-4 -4 -4 -10z"/>
<path d="M481 704 c0 -11 3 -14 6 -6 3 7 2 16 -1 19 -3 4 -6 -2 -5 -13z"/>
<path d="M360 273 c0 -7 -9 -13 -20 -13 -14 0 -20 -7 -20 -21 0 -11 4 -18 9
-15 5 3 11 -3 14 -14 3 -12 -1 -24 -11 -29 -9 -5 -14 -12 -10 -16 3 -3 15 0
27 7 25 15 37 69 22 95 -6 10 -11 12 -11 6z"/>
</g>
</svg>
